<?xml version="1.0" standalone="no"?>
<!DOCTYPE svg PUBLIC "-//W3C//DTD SVG 20010904//EN"
 "http://www.w3.org/TR/2001/REC-SVG-20010904/DTD/svg10.dtd">
<svg version="1.0" xmlns="http://www.w3.org/2000/svg"
 width="225.000000pt" height="225.000000pt" viewBox="0 0 225.000000 225.000000"
 preserveAspectRatio="xMidYMid meet">

<g transform="translate(0.000000,225.000000) scale(0.100000,-0.100000)"
fill="#000000" stroke="none">
<path d="M928 2128 c-9 -7 -21 -38 -28 -68 -6 -30 -18 -86 -26 -125 -14 -65
-43 -115 -67 -115 -5 0 -36 -16 -68 -36 -86 -52 -116 -58 -191 -38 -35 8 -89
27 -122 40 -70 28 -84 23 -122 -44 -15 -26 -42 -71 -60 -99 -19 -29 -34 -55
-34 -59 0 -3 -13 -25 -30 -49 -48 -70 -42 -87 63 -181 51 -44 98 -91 104 -105
19 -36 17 -222 -2 -259 -8 -16 -21 -33 -29 -37 -7 -4 -48 -39 -90 -78 -87 -80
-91 -94 -48 -164 16 -25 58 -95 93 -155 35 -59 70 -111 77 -114 8 -2 62 12
122 32 144 48 163 47 270 -15 49 -28 96 -59 105 -69 9 -10 25 -62 36 -116 11
-55 24 -114 30 -132 l11 -32 147 0 c82 0 168 -2 192 -5 24 -3 50 -2 58 3 7 5
26 67 43 138 16 71 37 137 46 147 24 27 196 117 224 117 13 0 71 -16 128 -35
57 -19 114 -35 126 -35 24 0 32 11 148 207 36 62 66 123 66 135 0 17 -27 47
-95 108 -54 48 -99 97 -105 114 -14 41 -12 226 3 252 7 12 54 59 105 104 54
48 92 89 92 100 0 18 -16 48 -100 185 -20 33 -50 81 -66 107 -16 26 -34 50
-41 52 -6 3 -46 -8 -88 -24 -161 -60 -199 -59 -302 6 -28 19 -56 34 -61 34 -5
0 -19 11 -31 24 -16 17 -31 62 -52 152 -16 71 -35 132 -42 136 -21 14 -371 10
-389 -4z m350 -414 c202 -56 358 -210 428 -424 22 -68 21 -237 -1 -324 -53
-203 -235 -383 -436 -431 -75 -17 -191 -19 -275 -4 -32 6 -97 29 -143 51 -154
74 -266 210 -317 385 -20 69 -22 235 -4 302 78 290 347 486 635 464 33 -3 84
-11 113 -19z"/>
<path d="M969 1512 c-189 -76 -282 -256 -247 -480 19 -118 105 -230 222 -287
50 -24 76 -30 151 -33 236 -11 403 121 434 341 26 186 -58 359 -214 440 -56
29 -68 31 -180 34 -98 3 -128 0 -166 -15z m240 -138 c185 -55 238 -315 91
-447 -55 -50 -103 -67 -187 -67 -153 0 -265 129 -250 290 9 104 73 188 169
221 66 23 109 24 177 3z"/>
</g>
</svg>
