<?xml version="1.0" standalone="no"?>
<!DOCTYPE svg PUBLIC "-//W3C//DTD SVG 20010904//EN"
 "http://www.w3.org/TR/2001/REC-SVG-20010904/DTD/svg10.dtd">
<svg version="1.0" xmlns="http://www.w3.org/2000/svg"
 width="612.000000pt" height="612.000000pt" viewBox="0 0 612.000000 612.000000"
 preserveAspectRatio="xMidYMid meet">

<g transform="translate(0.000000,612.000000) scale(0.100000,-0.100000)"
fill="#000000" stroke="none">
<path d="M1427 4693 l-297 -298 667 -667 668 -668 -668 -668 -667 -667 297
-298 298 -297 667 667 668 668 663 -663 c364 -364 667 -662 672 -662 13 0 585
572 585 585 0 5 -298 308 -662 672 l-663 663 668 668 667 667 -297 298 -298
297 -667 -667 -668 -668 -668 668 -667 667 -298 -297z"/>
</g>
</svg>
